<svg width="12" height="12" viewBox="0 0 12 12" fill="none" xmlns="http://www.w3.org/2000/svg">
<path d="M6.15 10.1334L8.45 7.0667C8.53284 6.95624 8.51046 6.79954 8.4 6.7167C8.35673 6.68424 8.30409 6.6667 8.25 6.6667H3.25C3.11193 6.6667 3 6.77863 3 6.9167C3 6.97079 3.01754 7.02342 3.05 7.0667L5.35 10.1334C5.51569 10.3543 5.82909 10.399 6.05 10.2334C6.0879 10.2049 6.12157 10.1713 6.15 10.1334ZM6.15 1.20003L8.45 4.2667C8.53284 4.37715 8.51046 4.53385 8.4 4.6167C8.35673 4.64915 8.30409 4.6667 8.25 4.6667H3.25C3.11193 4.6667 3 4.55477 3 4.4167C3 4.3626 3.01754 4.30997 3.05 4.2667L5.35 1.20003C5.51569 0.979115 5.82909 0.934344 6.05 1.10003C6.0879 1.12846 6.12157 1.16213 6.15 1.20003Z" fill="black"/>
</svg>
